<svg width="40" height="40" viewBox="0 0 40 40" fill="none" xmlns="http://www.w3.org/2000/svg">
    <g clip-path="url(#clip0_6_14)">
        <path fill-rule="evenodd" clip-rule="evenodd"
              d="M20 38C29.9411 38 38 29.9411 38 20C38 19.3579 37.9664 18.7237 37.9008 18.0991C37.0601 25.2512 30.9781 30.8 23.6 30.8C15.6471 30.8 9.2 24.3529 9.2 16.4C9.2 9.02194 14.7488 2.93987 21.9009 2.09918C21.2763 2.03362 20.6421 2 20 2C10.0589 2 2 10.0589 2 20C2 29.9411 10.0589 38 20 38Z"
              fill="url(#paint0_linear_6_14)"/>
        <path fill-rule="evenodd" clip-rule="evenodd"
              d="M23.6 23.6C27.5764 23.6 30.8 20.3764 30.8 16.4C30.8 12.4235 27.5764 9.2 23.6 9.2C19.6235 9.2 16.4 12.4235 16.4 16.4C16.4 17.1379 16.511 17.8499 16.7172 18.5202C17.2817 17.27 18.5392 16.4 20 16.4C21.9882 16.4 23.6 18.0118 23.6 20C23.6 21.4608 22.73 22.7183 21.4798 23.2828C22.1501 23.489 22.8621 23.6 23.6 23.6Z"
              fill="url(#paint1_linear_6_14)"/>
        <path fill-rule="evenodd" clip-rule="evenodd"
              d="M23.6 23.6C27.5764 23.6 30.8 20.3764 30.8 16.4C30.8 12.4235 27.5764 9.2 23.6 9.2C19.6235 9.2 16.4 12.4235 16.4 16.4C16.4 17.1379 16.511 17.8499 16.7172 18.5202C17.2817 17.27 18.5392 16.4 20 16.4C21.9882 16.4 23.6 18.0118 23.6 20C23.6 21.4608 22.73 22.7183 21.4798 23.2828C22.1501 23.489 22.8621 23.6 23.6 23.6Z"
              fill="black" fill-opacity="0.2"/>
    </g>
    <defs>
        <linearGradient id="paint0_linear_6_14" x1="2" y1="2" x2="38" y2="38" gradientUnits="userSpaceOnUse">
            <stop stop-color="#EE0979"/>
            <stop offset="1" stop-color="#BD00FF"/>
        </linearGradient>
        <linearGradient id="paint1_linear_6_14" x1="1.99999" y1="2" x2="38" y2="38" gradientUnits="userSpaceOnUse">
            <stop stop-color="#BD00FF"/>
            <stop offset="1" stop-color="#EE0979"/>
        </linearGradient>
        <clipPath id="clip0_6_14">
            <rect width="36" height="36" fill="white" transform="translate(2 2)"/>
        </clipPath>
    </defs>
</svg>
