<svg width="440" height="120" viewBox="0 0 440 120" fill="none" xmlns="http://www.w3.org/2000/svg">
<path d="M172.08 82.88C167.707 82.88 163.893 82.0533 160.64 80.4C157.387 78.7467 154.853 76.3733 153.04 73.28C151.227 70.1867 150.32 66.5333 150.32 62.32C150.32 59.12 150.827 56.2667 151.84 53.76C152.853 51.2 154.32 49.04 156.24 47.28C158.16 45.4667 160.453 44.1067 163.12 43.2C165.787 42.24 168.773 41.76 172.08 41.76C176.453 41.76 180.267 42.5867 183.52 44.24C186.773 45.8933 189.28 48.2667 191.04 51.36C192.853 54.4 193.76 58.0533 193.76 62.32C193.76 65.4667 193.253 68.32 192.24 70.88C191.227 73.44 189.76 75.6267 187.84 77.44C185.973 79.2 183.68 80.56 180.96 81.52C178.293 82.4267 175.333 82.88 172.08 82.88ZM172.08 72.4C173.52 72.4 174.8 72.0533 175.92 71.36C177.04 70.6133 177.893 69.52 178.48 68.08C179.12 66.5867 179.44 64.6667 179.44 62.32C179.44 58.7467 178.747 56.1867 177.36 54.64C175.973 53.04 174.213 52.24 172.08 52.24C170.64 52.24 169.36 52.5867 168.24 53.28C167.12 53.9733 166.24 55.0667 165.6 56.56C164.96 58 164.64 59.92 164.64 62.32C164.64 65.84 165.333 68.4 166.72 70C168.107 71.6 169.893 72.4 172.08 72.4Z" fill="#2B2D30"/>
<path d="M172.08 82.88C167.707 82.88 163.893 82.0533 160.64 80.4C157.387 78.7467 154.853 76.3733 153.04 73.28C151.227 70.1867 150.32 66.5333 150.32 62.32C150.32 59.12 150.827 56.2667 151.84 53.76C152.853 51.2 154.32 49.04 156.24 47.28C158.16 45.4667 160.453 44.1067 163.12 43.2C165.787 42.24 168.773 41.76 172.08 41.76C176.453 41.76 180.267 42.5867 183.52 44.24C186.773 45.8933 189.28 48.2667 191.04 51.36C192.853 54.4 193.76 58.0533 193.76 62.32C193.76 65.4667 193.253 68.32 192.24 70.88C191.227 73.44 189.76 75.6267 187.84 77.44C185.973 79.2 183.68 80.56 180.96 81.52C178.293 82.4267 175.333 82.88 172.08 82.88ZM172.08 72.4C173.52 72.4 174.8 72.0533 175.92 71.36C177.04 70.6133 177.893 69.52 178.48 68.08C179.12 66.5867 179.44 64.6667 179.44 62.32C179.44 58.7467 178.747 56.1867 177.36 54.64C175.973 53.04 174.213 52.24 172.08 52.24C170.64 52.24 169.36 52.5867 168.24 53.28C167.12 53.9733 166.24 55.0667 165.6 56.56C164.96 58 164.64 59.92 164.64 62.32C164.64 65.84 165.333 68.4 166.72 70C168.107 71.6 169.893 72.4 172.08 72.4Z" fill="url(#paint0_linear_16_38)"/>
<path d="M207.325 97.12C205.085 97.12 203.352 96.5067 202.125 95.28C200.898 94.0533 200.285 92.2667 200.285 89.92V49.04C200.285 46.7467 200.872 44.9867 202.045 43.76C203.272 42.5333 205.005 41.92 207.245 41.92C209.538 41.92 211.272 42.5333 212.445 43.76C213.672 44.9867 214.285 46.7467 214.285 49.04V53.68L213.405 49.76C214.152 47.36 215.698 45.44 218.045 44C220.445 42.5067 223.165 41.76 226.205 41.76C229.618 41.76 232.605 42.5867 235.165 44.24C237.778 45.8933 239.805 48.24 241.245 51.28C242.685 54.32 243.405 58 243.405 62.32C243.405 66.5333 242.685 70.1867 241.245 73.28C239.805 76.3733 237.778 78.7467 235.165 80.4C232.605 82.0533 229.618 82.88 226.205 82.88C223.272 82.88 220.632 82.1867 218.285 80.8C215.938 79.4133 214.365 77.6 213.565 75.36H214.525V89.92C214.525 92.2667 213.885 94.0533 212.605 95.28C211.378 96.5067 209.618 97.12 207.325 97.12ZM221.725 72.4C223.165 72.4 224.418 72.0533 225.485 71.36C226.605 70.6133 227.485 69.52 228.125 68.08C228.765 66.5867 229.085 64.6667 229.085 62.32C229.085 58.7467 228.392 56.1867 227.005 54.64C225.618 53.04 223.858 52.24 221.725 52.24C220.285 52.24 219.005 52.5867 217.885 53.28C216.765 53.9733 215.885 55.0667 215.245 56.56C214.605 58 214.285 59.92 214.285 62.32C214.285 65.84 214.978 68.4 216.365 70C217.752 71.6 219.538 72.4 221.725 72.4Z" fill="#2B2D30"/>
<path d="M207.325 97.12C205.085 97.12 203.352 96.5067 202.125 95.28C200.898 94.0533 200.285 92.2667 200.285 89.92V49.04C200.285 46.7467 200.872 44.9867 202.045 43.76C203.272 42.5333 205.005 41.92 207.245 41.92C209.538 41.92 211.272 42.5333 212.445 43.76C213.672 44.9867 214.285 46.7467 214.285 49.04V53.68L213.405 49.76C214.152 47.36 215.698 45.44 218.045 44C220.445 42.5067 223.165 41.76 226.205 41.76C229.618 41.76 232.605 42.5867 235.165 44.24C237.778 45.8933 239.805 48.24 241.245 51.28C242.685 54.32 243.405 58 243.405 62.32C243.405 66.5333 242.685 70.1867 241.245 73.28C239.805 76.3733 237.778 78.7467 235.165 80.4C232.605 82.0533 229.618 82.88 226.205 82.88C223.272 82.88 220.632 82.1867 218.285 80.8C215.938 79.4133 214.365 77.6 213.565 75.36H214.525V89.92C214.525 92.2667 213.885 94.0533 212.605 95.28C211.378 96.5067 209.618 97.12 207.325 97.12ZM221.725 72.4C223.165 72.4 224.418 72.0533 225.485 71.36C226.605 70.6133 227.485 69.52 228.125 68.08C228.765 66.5867 229.085 64.6667 229.085 62.32C229.085 58.7467 228.392 56.1867 227.005 54.64C225.618 53.04 223.858 52.24 221.725 52.24C220.285 52.24 219.005 52.5867 217.885 53.28C216.765 53.9733 215.885 55.0667 215.245 56.56C214.605 58 214.285 59.92 214.285 62.32C214.285 65.84 214.978 68.4 216.365 70C217.752 71.6 219.538 72.4 221.725 72.4Z" fill="url(#paint1_linear_16_38)"/>
<path d="M271.334 82.88C266.534 82.88 262.374 82.0533 258.854 80.4C255.388 78.6933 252.721 76.2933 250.854 73.2C248.988 70.1067 248.054 66.4533 248.054 62.24C248.054 58.1867 248.934 54.64 250.694 51.6C252.508 48.5067 254.961 46.1067 258.054 44.4C261.201 42.64 264.774 41.76 268.774 41.76C271.708 41.76 274.374 42.24 276.774 43.2C279.174 44.1067 281.228 45.4667 282.934 47.28C284.641 49.04 285.921 51.1733 286.774 53.68C287.681 56.1867 288.134 58.9867 288.134 62.08C288.134 63.1467 287.841 63.9467 287.254 64.48C286.668 64.96 285.734 65.2 284.454 65.2H259.974V58.48H277.734L276.454 59.52C276.454 57.5467 276.188 55.9467 275.654 54.72C275.121 53.4933 274.321 52.56 273.254 51.92C272.241 51.28 270.961 50.96 269.414 50.96C267.761 50.96 266.321 51.36 265.094 52.16C263.921 52.9067 263.014 54.0267 262.374 55.52C261.734 57.0133 261.414 58.88 261.414 61.12V61.84C261.414 65.6267 262.241 68.3467 263.894 70C265.601 71.6 268.214 72.4 271.734 72.4C272.908 72.4 274.241 72.2667 275.734 72C277.281 71.68 278.748 71.2533 280.134 70.72C281.521 70.1867 282.721 70.1067 283.734 70.48C284.748 70.8 285.521 71.3867 286.054 72.24C286.641 73.04 286.961 73.9733 287.014 75.04C287.068 76.0533 286.828 77.0667 286.294 78.08C285.761 79.04 284.881 79.7867 283.654 80.32C281.788 81.1733 279.788 81.8133 277.654 82.24C275.574 82.6667 273.468 82.88 271.334 82.88Z" fill="#2B2D30"/>
<path d="M271.334 82.88C266.534 82.88 262.374 82.0533 258.854 80.4C255.388 78.6933 252.721 76.2933 250.854 73.2C248.988 70.1067 248.054 66.4533 248.054 62.24C248.054 58.1867 248.934 54.64 250.694 51.6C252.508 48.5067 254.961 46.1067 258.054 44.4C261.201 42.64 264.774 41.76 268.774 41.76C271.708 41.76 274.374 42.24 276.774 43.2C279.174 44.1067 281.228 45.4667 282.934 47.28C284.641 49.04 285.921 51.1733 286.774 53.68C287.681 56.1867 288.134 58.9867 288.134 62.08C288.134 63.1467 287.841 63.9467 287.254 64.48C286.668 64.96 285.734 65.2 284.454 65.2H259.974V58.48H277.734L276.454 59.52C276.454 57.5467 276.188 55.9467 275.654 54.72C275.121 53.4933 274.321 52.56 273.254 51.92C272.241 51.28 270.961 50.96 269.414 50.96C267.761 50.96 266.321 51.36 265.094 52.16C263.921 52.9067 263.014 54.0267 262.374 55.52C261.734 57.0133 261.414 58.88 261.414 61.12V61.84C261.414 65.6267 262.241 68.3467 263.894 70C265.601 71.6 268.214 72.4 271.734 72.4C272.908 72.4 274.241 72.2667 275.734 72C277.281 71.68 278.748 71.2533 280.134 70.72C281.521 70.1867 282.721 70.1067 283.734 70.48C284.748 70.8 285.521 71.3867 286.054 72.24C286.641 73.04 286.961 73.9733 287.014 75.04C287.068 76.0533 286.828 77.0667 286.294 78.08C285.761 79.04 284.881 79.7867 283.654 80.32C281.788 81.1733 279.788 81.8133 277.654 82.24C275.574 82.6667 273.468 82.88 271.334 82.88Z" fill="url(#paint2_linear_16_38)"/>
<path d="M301.309 82.72C299.069 82.72 297.336 82.1067 296.109 80.88C294.883 79.6533 294.269 77.8667 294.269 75.52V49.04C294.269 46.7467 294.856 44.9867 296.029 43.76C297.256 42.5333 298.989 41.92 301.229 41.92C303.469 41.92 305.176 42.5333 306.349 43.76C307.523 44.9867 308.109 46.7467 308.109 49.04V52.8L307.229 49.52C308.509 47.0133 310.323 45.0933 312.669 43.76C315.069 42.4267 317.789 41.76 320.829 41.76C323.976 41.76 326.563 42.3733 328.589 43.6C330.616 44.7733 332.136 46.64 333.149 49.2C334.163 51.7067 334.669 54.88 334.669 58.72V75.52C334.669 77.8667 334.056 79.6533 332.829 80.88C331.603 82.1067 329.843 82.72 327.549 82.72C325.256 82.72 323.496 82.1067 322.269 80.88C321.043 79.6533 320.429 77.8667 320.429 75.52V59.28C320.429 56.88 320.003 55.1733 319.149 54.16C318.349 53.1467 317.149 52.64 315.549 52.64C313.416 52.64 311.709 53.3333 310.429 54.72C309.149 56.0533 308.509 57.8667 308.509 60.16V75.52C308.509 80.32 306.109 82.72 301.309 82.72Z" fill="#2B2D30"/>
<path d="M301.309 82.72C299.069 82.72 297.336 82.1067 296.109 80.88C294.883 79.6533 294.269 77.8667 294.269 75.52V49.04C294.269 46.7467 294.856 44.9867 296.029 43.76C297.256 42.5333 298.989 41.92 301.229 41.92C303.469 41.92 305.176 42.5333 306.349 43.76C307.523 44.9867 308.109 46.7467 308.109 49.04V52.8L307.229 49.52C308.509 47.0133 310.323 45.0933 312.669 43.76C315.069 42.4267 317.789 41.76 320.829 41.76C323.976 41.76 326.563 42.3733 328.589 43.6C330.616 44.7733 332.136 46.64 333.149 49.2C334.163 51.7067 334.669 54.88 334.669 58.72V75.52C334.669 77.8667 334.056 79.6533 332.829 80.88C331.603 82.1067 329.843 82.72 327.549 82.72C325.256 82.72 323.496 82.1067 322.269 80.88C321.043 79.6533 320.429 77.8667 320.429 75.52V59.28C320.429 56.88 320.003 55.1733 319.149 54.16C318.349 53.1467 317.149 52.64 315.549 52.64C313.416 52.64 311.709 53.3333 310.429 54.72C309.149 56.0533 308.509 57.8667 308.509 60.16V75.52C308.509 80.32 306.109 82.72 301.309 82.72Z" fill="url(#paint3_linear_16_38)"/>
<path d="M349.825 82.72C347.585 82.72 345.852 82.0533 344.625 80.72C343.398 79.3867 342.785 77.4667 342.785 74.96V49.68C342.785 47.1733 343.398 45.2533 344.625 43.92C345.852 42.5867 347.585 41.92 349.825 41.92C352.118 41.92 353.878 42.5867 355.105 43.92C356.385 45.2533 357.025 47.1733 357.025 49.68V74.96C357.025 77.4667 356.412 79.3867 355.185 80.72C353.958 82.0533 352.172 82.72 349.825 82.72ZM349.825 36.24C347.318 36.24 345.372 35.6533 343.985 34.48C342.652 33.3067 341.985 31.6 341.985 29.36C341.985 27.1733 342.652 25.4933 343.985 24.32C345.372 23.1467 347.318 22.56 349.825 22.56C352.438 22.56 354.412 23.1467 355.745 24.32C357.078 25.4933 357.745 27.1733 357.745 29.36C357.745 31.6 357.078 33.3067 355.745 34.48C354.412 35.6533 352.438 36.24 349.825 36.24Z" fill="#2B2D30"/>
<path d="M349.825 82.72C347.585 82.72 345.852 82.0533 344.625 80.72C343.398 79.3867 342.785 77.4667 342.785 74.96V49.68C342.785 47.1733 343.398 45.2533 344.625 43.92C345.852 42.5867 347.585 41.92 349.825 41.92C352.118 41.92 353.878 42.5867 355.105 43.92C356.385 45.2533 357.025 47.1733 357.025 49.68V74.96C357.025 77.4667 356.412 79.3867 355.185 80.72C353.958 82.0533 352.172 82.72 349.825 82.72ZM349.825 36.24C347.318 36.24 345.372 35.6533 343.985 34.48C342.652 33.3067 341.985 31.6 341.985 29.36C341.985 27.1733 342.652 25.4933 343.985 24.32C345.372 23.1467 347.318 22.56 349.825 22.56C352.438 22.56 354.412 23.1467 355.745 24.32C357.078 25.4933 357.745 27.1733 357.745 29.36C357.745 31.6 357.078 33.3067 355.745 34.48C354.412 35.6533 352.438 36.24 349.825 36.24Z" fill="url(#paint4_linear_16_38)"/>
<path d="M372.325 82.72C370.085 82.72 368.352 82.1067 367.125 80.88C365.898 79.6533 365.285 77.8667 365.285 75.52V49.04C365.285 46.7467 365.872 44.9867 367.045 43.76C368.272 42.5333 370.005 41.92 372.245 41.92C374.485 41.92 376.192 42.5333 377.365 43.76C378.538 44.9867 379.125 46.7467 379.125 49.04V52.8L378.245 49.52C379.525 47.0133 381.338 45.0933 383.685 43.76C386.085 42.4267 388.805 41.76 391.845 41.76C394.992 41.76 397.578 42.3733 399.605 43.6C401.632 44.7733 403.152 46.64 404.165 49.2C405.178 51.7067 405.685 54.88 405.685 58.72V75.52C405.685 77.8667 405.072 79.6533 403.845 80.88C402.618 82.1067 400.858 82.72 398.565 82.72C396.272 82.72 394.512 82.1067 393.285 80.88C392.058 79.6533 391.445 77.8667 391.445 75.52V59.28C391.445 56.88 391.018 55.1733 390.165 54.16C389.365 53.1467 388.165 52.64 386.565 52.64C384.432 52.64 382.725 53.3333 381.445 54.72C380.165 56.0533 379.525 57.8667 379.525 60.16V75.52C379.525 80.32 377.125 82.72 372.325 82.72Z" fill="#2B2D30"/>
<path d="M372.325 82.72C370.085 82.72 368.352 82.1067 367.125 80.88C365.898 79.6533 365.285 77.8667 365.285 75.52V49.04C365.285 46.7467 365.872 44.9867 367.045 43.76C368.272 42.5333 370.005 41.92 372.245 41.92C374.485 41.92 376.192 42.5333 377.365 43.76C378.538 44.9867 379.125 46.7467 379.125 49.04V52.8L378.245 49.52C379.525 47.0133 381.338 45.0933 383.685 43.76C386.085 42.4267 388.805 41.76 391.845 41.76C394.992 41.76 397.578 42.3733 399.605 43.6C401.632 44.7733 403.152 46.64 404.165 49.2C405.178 51.7067 405.685 54.88 405.685 58.72V75.52C405.685 77.8667 405.072 79.6533 403.845 80.88C402.618 82.1067 400.858 82.72 398.565 82.72C396.272 82.72 394.512 82.1067 393.285 80.88C392.058 79.6533 391.445 77.8667 391.445 75.52V59.28C391.445 56.88 391.018 55.1733 390.165 54.16C389.365 53.1467 388.165 52.64 386.565 52.64C384.432 52.64 382.725 53.3333 381.445 54.72C380.165 56.0533 379.525 57.8667 379.525 60.16V75.52C379.525 80.32 377.125 82.72 372.325 82.72Z" fill="url(#paint5_linear_16_38)"/>
<path d="M420.841 82.72C418.601 82.72 416.867 82.0533 415.641 80.72C414.414 79.3867 413.801 77.4667 413.801 74.96V49.68C413.801 47.1733 414.414 45.2533 415.641 43.92C416.867 42.5867 418.601 41.92 420.841 41.92C423.134 41.92 424.894 42.5867 426.121 43.92C427.401 45.2533 428.041 47.1733 428.041 49.68V74.96C428.041 77.4667 427.427 79.3867 426.201 80.72C424.974 82.0533 423.187 82.72 420.841 82.72ZM420.841 36.24C418.334 36.24 416.387 35.6533 415.001 34.48C413.667 33.3067 413.001 31.6 413.001 29.36C413.001 27.1733 413.667 25.4933 415.001 24.32C416.387 23.1467 418.334 22.56 420.841 22.56C423.454 22.56 425.427 23.1467 426.761 24.32C428.094 25.4933 428.761 27.1733 428.761 29.36C428.761 31.6 428.094 33.3067 426.761 34.48C425.427 35.6533 423.454 36.24 420.841 36.24Z" fill="#2B2D30"/>
<path d="M420.841 82.72C418.601 82.72 416.867 82.0533 415.641 80.72C414.414 79.3867 413.801 77.4667 413.801 74.96V49.68C413.801 47.1733 414.414 45.2533 415.641 43.92C416.867 42.5867 418.601 41.92 420.841 41.92C423.134 41.92 424.894 42.5867 426.121 43.92C427.401 45.2533 428.041 47.1733 428.041 49.68V74.96C428.041 77.4667 427.427 79.3867 426.201 80.72C424.974 82.0533 423.187 82.72 420.841 82.72ZM420.841 36.24C418.334 36.24 416.387 35.6533 415.001 34.48C413.667 33.3067 413.001 31.6 413.001 29.36C413.001 27.1733 413.667 25.4933 415.001 24.32C416.387 23.1467 418.334 22.56 420.841 22.56C423.454 22.56 425.427 23.1467 426.761 24.32C428.094 25.4933 428.761 27.1733 428.761 29.36C428.761 31.6 428.094 33.3067 426.761 34.48C425.427 35.6533 423.454 36.24 420.841 36.24Z" fill="url(#paint6_linear_16_38)"/>
<g clip-path="url(#clip0_16_38)">
<path fill-rule="evenodd" clip-rule="evenodd" d="M60 110C87.6142 110 110 87.6142 110 60C110 58.2165 109.907 56.4549 109.724 54.7196C107.389 74.5867 90.4946 90 70 90C47.9086 90 30 72.0914 30 50C30 29.5054 45.4133 12.6108 65.2804 10.2755C63.5451 10.0934 61.7835 10 60 10C32.3858 10 10 32.3858 10 60C10 87.6142 32.3858 110 60 110Z" fill="url(#paint7_linear_16_38)"/>
<path fill-rule="evenodd" clip-rule="evenodd" d="M70 70C81.0457 70 90 61.0457 90 50C90 38.9543 81.0457 30 70 30C58.9543 30 50 38.9543 50 50C50 52.0498 50.3084 54.0275 50.8812 55.8894C52.4491 52.4168 55.9423 50 60 50C65.5228 50 70 54.4772 70 60C70 64.0577 67.5832 67.5509 64.1106 69.1188C65.9725 69.6916 67.9502 70 70 70Z" fill="url(#paint8_linear_16_38)"/>
<path fill-rule="evenodd" clip-rule="evenodd" d="M70 70C81.0457 70 90 61.0457 90 50C90 38.9543 81.0457 30 70 30C58.9543 30 50 38.9543 50 50C50 52.0498 50.3084 54.0275 50.8812 55.8894C52.4491 52.4168 55.9423 50 60 50C65.5228 50 70 54.4772 70 60C70 64.0577 67.5832 67.5509 64.1106 69.1188C65.9725 69.6916 67.9502 70 70 70Z" fill="black" fill-opacity="0.2"/>
</g>
<defs>
<linearGradient id="paint0_linear_16_38" x1="150" y1="23" x2="429" y2="97" gradientUnits="userSpaceOnUse">
<stop stop-color="#EE0979"/>
<stop offset="1" stop-color="#BD00FF"/>
</linearGradient>
<linearGradient id="paint1_linear_16_38" x1="150" y1="23" x2="429" y2="97" gradientUnits="userSpaceOnUse">
<stop stop-color="#EE0979"/>
<stop offset="1" stop-color="#BD00FF"/>
</linearGradient>
<linearGradient id="paint2_linear_16_38" x1="150" y1="23" x2="429" y2="97" gradientUnits="userSpaceOnUse">
<stop stop-color="#EE0979"/>
<stop offset="1" stop-color="#BD00FF"/>
</linearGradient>
<linearGradient id="paint3_linear_16_38" x1="150" y1="23" x2="429" y2="97" gradientUnits="userSpaceOnUse">
<stop stop-color="#EE0979"/>
<stop offset="1" stop-color="#BD00FF"/>
</linearGradient>
<linearGradient id="paint4_linear_16_38" x1="150" y1="23" x2="429" y2="97" gradientUnits="userSpaceOnUse">
<stop stop-color="#EE0979"/>
<stop offset="1" stop-color="#BD00FF"/>
</linearGradient>
<linearGradient id="paint5_linear_16_38" x1="150" y1="23" x2="429" y2="97" gradientUnits="userSpaceOnUse">
<stop stop-color="#EE0979"/>
<stop offset="1" stop-color="#BD00FF"/>
</linearGradient>
<linearGradient id="paint6_linear_16_38" x1="150" y1="23" x2="429" y2="97" gradientUnits="userSpaceOnUse">
<stop stop-color="#EE0979"/>
<stop offset="1" stop-color="#BD00FF"/>
</linearGradient>
<linearGradient id="paint7_linear_16_38" x1="10" y1="10" x2="110" y2="110" gradientUnits="userSpaceOnUse">
<stop stop-color="#EE0979"/>
<stop offset="1" stop-color="#BD00FF"/>
</linearGradient>
<linearGradient id="paint8_linear_16_38" x1="10" y1="10" x2="110" y2="110" gradientUnits="userSpaceOnUse">
<stop stop-color="#BD00FF"/>
<stop offset="1" stop-color="#EE0979"/>
</linearGradient>
<clipPath id="clip0_16_38">
<rect width="100" height="100" fill="white" transform="translate(10 10)"/>
</clipPath>
</defs>
</svg>
