<svg width="16" height="16" viewBox="0 0 40 40" fill="none" xmlns="http://www.w3.org/2000/svg">
<path fill-rule="evenodd" clip-rule="evenodd" d="M33.9961 20.1062C33.9961 19.6843 33.6811 19.4411 33.2946 19.5619L6.70156 27.9092C6.31422 28.0308 6 28.472 6 28.8931V37.4244C6 37.8463 6.31422 38.0904 6.70156 37.9687L33.2946 29.6222C33.6811 29.5006 33.9961 29.0594 33.9961 28.6375V20.1062Z" fill="url(#paint0_linear_17_38)"/>
<path fill-rule="evenodd" clip-rule="evenodd" d="M6 19.8345C6 20.2564 6.31422 20.6975 6.70156 20.8192L33.2984 29.1672C33.6858 29.2889 34 29.0448 34 28.6237V20.0916C34 19.6705 33.6858 19.2293 33.2984 19.1077L6.70156 10.7596C6.31422 10.638 6 10.8813 6 11.3032L6 19.8345Z" fill="#FF9800"/>
<path fill-rule="evenodd" clip-rule="evenodd" d="M33.9961 2.57559C33.9961 2.15369 33.6811 1.90963 33.2946 2.03127L6.70156 10.3778C6.31422 10.4994 6 10.9406 6 11.3625V19.8938C6 20.3157 6.31422 20.5589 6.70156 20.4381L33.2946 12.0908C33.6811 11.9692 33.9961 11.528 33.9961 11.1069V2.57559Z" fill="#FF9800"/>
<defs>
<linearGradient id="paint0_linear_17_38" x1="21.4306" y1="32.3746" x2="24.5267" y2="24.7224" gradientUnits="userSpaceOnUse">
<stop stop-color="#FF9700"/>
<stop offset="0.53" stop-color="#F48E00"/>
<stop offset="1" stop-color="#D06F00"/>
</linearGradient>
</defs>
</svg>
