<svg width="16" height="16" viewBox="0 0 40 40" fill="none" xmlns="http://www.w3.org/2000/svg">
<path d="M36.7269 5.81349L29.3138 2.22355C28.4557 1.80802 27.4302 1.9833 26.7568 2.66061L2.48907 24.9153C1.83633 25.5138 1.83708 26.5475 2.49069 27.1451L4.47296 28.9576C5.00731 29.4462 5.81206 29.4821 6.38738 29.0432L35.6114 6.74482C36.5918 5.99674 38 6.70006 38 7.93782V7.85126C38 6.98242 37.5052 6.19041 36.7269 5.81349Z" fill="#0065A9"/>
<path d="M36.7269 34.1865L29.3138 37.7764C28.4557 38.192 27.4302 38.0166 26.7568 37.3393L2.48907 15.0847C1.83633 14.4861 1.83708 13.4525 2.49069 12.8549L4.47296 11.0424C5.00731 10.5538 5.81206 10.5178 6.38738 10.9568L35.6114 33.2551C36.5918 34.0032 38 33.2999 38 32.0622V32.1487C38 33.0175 37.5052 33.8095 36.7269 34.1865Z" fill="#007ACC"/>
<path d="M29.3141 37.7771C28.4558 38.1924 27.4303 38.0167 26.7568 37.3393C27.5866 38.1739 29.0055 37.5828 29.0055 36.4025V3.59741C29.0055 2.4171 27.5866 1.82599 26.7568 2.6606C27.4303 1.98323 28.4558 1.8077 29.3141 2.22287L36.7259 5.80789C37.5047 6.18459 38 6.97689 38 7.84609V32.154C38 33.0232 37.5047 33.8155 36.7259 34.1922L29.3141 37.7771Z" fill="#1F9CF0"/>
</svg>
